<?xml version="1.0" standalone="no"?>
<!DOCTYPE svg PUBLIC "-//W3C//DTD SVG 1.1//EN" "http://www.w3.org/Graphics/SVG/1.1/DTD/svg11.dtd" >
<svg xmlns="http://www.w3.org/2000/svg">
<metadata>
This is a custom SVG webfont generated by Font Squirrel.
Copyright   : Copyright  1993 1994 2001 Adobe Systems Incorporated  All Rights Reserved
Designer    : Herb Lubalin Tom Carnase Ed Benguiat Adobe Type Staff
Foundry URL : httpwwwadobecomtype
</metadata>
<defs>
<font id="webfontGg0JzGwO" horiz-adv-x="1265" >
<font-face units-per-em="2048" ascent="1516" descent="-532" />
<missing-glyph horiz-adv-x="632" />
<glyph unicode=" "  horiz-adv-x="632" />
<glyph unicode="&#x09;" horiz-adv-x="632" />
<glyph unicode="&#xa0;" horiz-adv-x="632" />
<glyph unicode="!" horiz-adv-x="681" d="M516 1516v-1016h-350v1016h350zM516 348v-348h-350v348h350z" />
<glyph unicode="&#x22;" horiz-adv-x="948" d="M408 909h-254v607h254v-607zM795 909h-254v607h254v-607z" />
<glyph unicode="#" d="M889 473l-49 -356h-232l49 356h-159l-49 -356h-234l49 356h-203l31 227h205l20 150h-204l30 227h205l45 324h234l-45 -324h159l45 324h234l-45 -324h227l-31 -227h-229l-20 -150h227l-31 -227h-229zM690 700l21 150h-160l-21 -150h160z" />
<glyph unicode="$" d="M780 1661v-207q129 -31 208 -132t77 -257h-317q0 49 -28 89t-85 40q-49 0 -80 -34t-31 -81q0 -72 58.5 -110.5t218.5 -100.5q90 -35 153.5 -86t93 -108.5t42 -104.5t12.5 -94q0 -135 -82 -250.5t-240 -173.5v-207h-276v207q-166 25 -253 146.5t-87 261.5h350 q0 -59 34 -102.5t87 -43.5q51 0 84 37t33 84q0 35 -18.5 65.5t-43 51t-70 43t-75 35t-82.5 30.5q-287 96 -287 381q0 172 95.5 273.5t232.5 140.5v207h276z" />
<glyph unicode="%" horiz-adv-x="1757" d="M74 1176v2q0 152 108.5 260t259.5 108q154 0 261.5 -108.5t107.5 -262t-108.5 -261t-260 -107.5t-260 107.5t-108.5 261.5zM301 1176v-2q0 -55 42 -97.5t99.5 -42.5t99.5 42t42 101.5t-41 100.5t-100.5 41t-100.5 -41t-41 -102zM944 340v2q0 152 108.5 260.5t262.5 108.5 q152 0 260 -108.5t108 -262.5t-109.5 -262.5t-258.5 -108.5q-152 0 -261.5 107.5t-109.5 263.5zM1171 340v-2q0 -57 42 -99t102 -42q57 0 99 42t42 101q0 61 -42 102t-99 41q-61 0 -102.5 -42t-41.5 -101zM1307 1516l-629 -1516h-236l627 1516h238z" />
<glyph unicode="&#x26;" horiz-adv-x="1552" d="M1126 891h359l-246 -461l229 -233l-231 -228l-184 191q-41 -70 -142.5 -130.5t-265.5 -60.5q-248 0 -396.5 126t-148.5 315q0 80 26 147.5t77 120.5t86 80.5t92 66.5q-143 145 -143 328q0 166 121.5 278.5t297.5 112.5q172 0 285 -108.5t113 -264.5q0 -70 -21.5 -129 t-60.5 -104t-63.5 -66.5t-63.5 -48.5l168 -170zM659 1270h-2q-35 0 -62.5 -26.5t-27.5 -74.5q0 -74 86 -163q94 94 95 168q0 41 -24 68.5t-65 27.5zM829 379l-239 242q-35 -29 -54.5 -46.5t-41 -54.5t-21.5 -76q0 -70 52.5 -109.5t129.5 -39.5q117 0 174 84z" />
<glyph unicode="'" horiz-adv-x="495" d="M375 909h-254v607h254v-607z" />
<glyph unicode="(" horiz-adv-x="968" d="M881 1544v-375q-145 -61 -262 -241t-117 -428q0 -238 113.5 -418t265.5 -246v-377q-193 61 -341.5 180t-234.5 264.5t-129 298t-43 302t43 301t128 297t234.5 263.5t342.5 179z" />
<glyph unicode=")" horiz-adv-x="968" d="M88 -541v375q145 61 262 241.5t117 428.5q0 238 -113.5 418t-265.5 245v377q193 -61 341.5 -180t234.5 -264.5t129 -298t43 -302t-43 -301t-128 -297t-234.5 -263.5t-342.5 -179z" />
<glyph unicode="*" horiz-adv-x="1372" d="M797 1516l-66 -314l242 211l106 -192l-295 -95l295 -94l-114 -201l-238 218l70 -312h-222l66 316l-233 -222l-115 201l295 98l-295 91l106 192l246 -209l-70 312h222z" />
<glyph unicode="+" horiz-adv-x="1228" d="M778 1036v-354h352v-328h-352v-354h-327v354h-353v328h353v354h327z" />
<glyph unicode="," horiz-adv-x="643" d="M498 348l-205 -512h-281l131 512h355z" />
<glyph unicode="-" horiz-adv-x="575" d="M0 758h575v-334h-575v334z" />
<glyph unicode="." horiz-adv-x="643" d="M500 348v-348h-355v348h355z" />
<glyph unicode="/" horiz-adv-x="1214" d="M147 -205l543 1721h377l-541 -1721h-379z" />
<glyph unicode="0" d="M68 547v422q0 156 57 273.5t148.5 180t183.5 92t182 29.5q63 0 133 -16.5t147.5 -58.5t138 -104t100.5 -164.5t40 -231.5v-422q0 -150 -53 -266.5t-138 -181t-179.5 -96.5t-188.5 -32q-72 0 -145.5 18.5t-151.5 61.5t-138.5 107.5t-98 165t-37.5 223.5zM455 979v-442 q0 -88 38.5 -157t139.5 -69q178 0 178 226v442q0 225 -178 225q-72 0 -114 -42t-53 -87t-11 -96z" />
<glyph unicode="1" d="M461 0v1190h-248v326h635v-1516h-387z" />
<glyph unicode="2" d="M104 0v301l408 344q143 119 203.5 198t60.5 191q0 86 -44 128t-118 42q-152 0 -155 -239h-369q2 70 6 109.5t25.5 110t58.5 128.5q59 92 155.5 147.5t168 69.5t143.5 14q242 0 379 -137t137 -332q0 -143 -54 -254.5t-196 -240.5l-278 -254h539v-326h-1070z" />
<glyph unicode="3" d="M489 1073h-380q6 246 184 371q139 100 334 100q213 0 344 -123t131 -291q0 -207 -201 -317q285 -96 285 -367q0 -197 -166 -336t-395 -139q-141 0 -272.5 54.5t-200.5 158.5q-66 94 -84 269h391q33 -139 174 -142q82 0 124 47.5t42 122.5q0 154 -203 154h-137v285h65 q190 0 191 151q0 55 -26.5 94t-80.5 39q-111 0 -119 -131z" />
<glyph unicode="4" d="M698 0v266h-667v283l678 967h360v-947h168v-303h-168v-266h-371zM420 569h303v475z" />
<glyph unicode="5" d="M238 1516h837v-326h-540l-33 -207q82 45 205 45q127 0 228 -49t159.5 -127t88 -164t29.5 -168q0 -92 -34.5 -185t-102 -176t-183.5 -136.5t-261 -53.5q-236 0 -389.5 124t-188.5 313h389q70 -94 179 -95q84 0 144 59.5t60 141.5q0 80 -55 139.5t-152 59.5 q-141 0 -198 -131l-314 77z" />
<glyph unicode="6" d="M559 1516h449l-275 -375l-59 -82l14 2q12 0 31.5 1t32.5 1q117 0 222 -54.5t180 -175t75 -284.5q0 -254 -171 -416t-417 -162q-145 0 -269 52.5t-200 152.5q-129 145 -129 381q0 190 139 406zM424 522v-2q0 -98 63.5 -153.5t141.5 -55.5q88 0 150.5 58.5t62.5 146.5 q0 80 -57.5 143.5t-155.5 63.5q-90 0 -147.5 -59.5t-57.5 -141.5z" />
<glyph unicode="7" d="M133 1516h987v-297l-532 -1219h-426l559 1190h-588v326z" />
<glyph unicode="8" d="M119 1122v2q0 168 133 294t381 126t381 -126t133 -296q0 -168 -148 -288q186 -92 187 -353q0 -223 -154.5 -366.5t-398.5 -143.5t-398.5 143.5t-154.5 366.5q0 260 186 353q-147 120 -147 288zM494 1092v-2q0 -59 40.5 -98.5t98 -39.5t98.5 40t41 99.5t-41 99.5t-98.5 40 t-98 -40t-40.5 -99zM467 483v-2q0 -63 46 -116.5t120 -53.5t120 53.5t46 118.5q0 68 -45 121t-121 53t-121 -53t-45 -121z" />
<glyph unicode="9" d="M711 0h-449l275 375l59 82l-14 -2q-12 0 -32 -1t-32 -1q-117 0 -222.5 54t-180 175t-74.5 285q0 254 171 415.5t417 161.5q145 0 269 -52t200 -153q129 -145 129 -381q0 -190 -140 -405zM846 995v2q0 96 -63.5 151.5t-145.5 55.5q-86 0 -147.5 -57t-61.5 -146 q0 -80 56.5 -143t152.5 -63q92 0 150.5 59t58.5 141z" />
<glyph unicode=":" horiz-adv-x="643" d="M500 1137v-349h-355v349h355zM500 348v-348h-355v348h355z" />
<glyph unicode=";" horiz-adv-x="643" d="M500 1137v-349h-355v349h355zM500 348l-226 -512h-260l131 512h355z" />
<glyph unicode="&#x3c;" horiz-adv-x="1228" d="M94 676l1041 438v-358l-697 -240l697 -235v-359l-1041 438v316z" />
<glyph unicode="=" horiz-adv-x="1228" d="M98 952h1032v-327h-1032v327zM98 412h1032v-328h-1032v328z" />
<glyph unicode="&#x3e;" horiz-adv-x="1228" d="M94 281l697 239l-697 236v358l1041 -438v-316l-1041 -438v359z" />
<glyph unicode="?" horiz-adv-x="1212" d="M739 481h-356q2 100 50 176t163 185q139 137 139 225q0 127 -119 127q-131 0 -139 -154q-2 -14 -2 -43h-375q-2 18 -2 37q0 221 151.5 365.5t387.5 144.5q225 0 358 -134t133 -300q0 -88 -39.5 -169t-77.5 -122t-114 -110q-94 -88 -124 -132.5t-34 -95.5zM739 348v-348 h-356v348h356z" />
<glyph unicode="@" horiz-adv-x="1531" d="M1235 229l43 -188q-205 -74 -475 -74q-172 0 -313.5 51.5t-231.5 132t-151.5 185t-87 208t-25.5 204.5q0 207 96 388t282.5 296.5t424.5 115.5q317 0 521 -193.5t204 -477.5q0 -221 -121 -386t-281 -165q-150 0 -200 147q-51 -84 -108.5 -115.5t-135.5 -31.5 q-131 0 -223.5 103t-92.5 259q0 170 115 314.5t285 144.5q78 0 131 -35t72 -86l20 96h213l-76 -446q-10 -68 -14 -98q-2 -59 55 -60q59 0 113.5 106.5t54.5 249.5q0 213 -148.5 350.5t-375.5 137.5q-262 0 -432 -186.5t-170 -432.5q0 -59 12 -124.5t51 -151.5t100.5 -152.5 t175 -113.5t261.5 -47q225 -1 432 75zM580 696v-2q0 -88 46 -132t107 -44q117 0 168 139q20 66 20.5 131.5t-32.5 115.5t-103 50q-86 0 -146 -79t-60 -179z" />
<glyph unicode="A" horiz-adv-x="1552" d="M508 219l-70 -219h-420l600 1516h334l582 -1516h-424l-72 219h-530zM938 526l-170 529l-164 -529h334z" />
<glyph unicode="B" horiz-adv-x="1325" d="M137 0v1516h557q236 0 367 -103q135 -100 135 -295q0 -205 -176 -305q250 -88 250 -352q0 -94 -36 -184.5t-104 -145.5q-100 -84 -196 -107.5t-299 -23.5h-498zM524 1176v-236h138q68 0 102 14q61 29 61 107q0 74 -59 100q-33 14 -104 15h-138zM524 616v-276h183 q74 0 114 18q78 33 78 127q0 86 -74 115q-39 16 -118 16h-183z" />
<glyph unicode="C" horiz-adv-x="1703" d="M1235 567h405q-66 -268 -277.5 -432t-488.5 -164q-346 0 -572 235.5t-226 553.5q0 197 93 374t278.5 293.5t422.5 116.5q168 0 313.5 -60.5t236.5 -153.5t147.5 -194.5t72.5 -195.5h-405q-39 104 -132 184t-235 80q-184 0 -294.5 -134t-110.5 -308q0 -180 112.5 -315.5 t294.5 -135.5q246 0 365 256z" />
<glyph unicode="D" horiz-adv-x="1519" d="M137 0v1516h502q59 0 96 -2.5t107.5 -8.5t124 -24.5t117 -48t121 -81t104.5 -118.5q139 -190 139 -471q0 -162 -42 -295t-131 -240.5t-243.5 -167t-363.5 -59.5h-531zM524 1176v-836h166q104 0 179 34t115 94t58.5 131t18.5 157q0 166 -74 280q-92 139 -295 140h-168z " />
<glyph unicode="E" horiz-adv-x="1081" d="M137 0v1516h858v-340h-471v-236h457v-340h-457v-260h471v-340h-858z" />
<glyph unicode="F" horiz-adv-x="1036" d="M137 0v1516h828v-340h-441v-258h424v-340h-424v-578h-387z" />
<glyph unicode="G" horiz-adv-x="1748" d="M1640 1008h-434q-33 57 -80 102q-109 94 -254 94q-160 0 -286.5 -115.5t-126.5 -324.5q0 -221 127 -338t288 -117q141 0 238 68q94 61 125 176h-453v309h899q3 -41 4 -81q0 -191 -73 -353q-53 -119 -141.5 -211t-190.5 -144.5t-204.5 -78t-200.5 -25.5 q-342 0 -573.5 232.5t-231.5 562.5q0 336 235.5 558t575.5 222q266 0 480 -155.5t277 -380.5z" />
<glyph unicode="H" horiz-adv-x="1544" d="M524 0h-387v1516h387v-570h496v570h387v-1516h-387v606h-496v-606z" />
<glyph unicode="I" horiz-adv-x="661" d="M137 0v1516h387v-1516h-387z" />
<glyph unicode="J" horiz-adv-x="1183" d="M1044 1516v-916q0 -252 -49 -360q-53 -113 -168 -181q-137 -88 -305 -88q-16 0 -35.5 1t-66.5 8.5t-89 21.5t-94.5 44t-92.5 71t-73.5 106.5t-47.5 147.5q-10 61 -11 116h412q0 -12 4 -45q18 -131 113 -131q76 0 102 70q14 41 14 123v1012h387z" />
<glyph unicode="K" horiz-adv-x="1447" d="M178 0v1516h387v-682l432 682h406l-500 -754l551 -762h-471l-418 655v-655h-387z" />
<glyph unicode="L" horiz-adv-x="997" d="M147 0v1516h388v-1176h448v-340h-836z" />
<glyph unicode="M" horiz-adv-x="1873" d="M494 0h-357v1516h518l285 -977l277 977h520v-1516h-357l13 1135l-328 -1135h-256l-328 1135z" />
<glyph unicode="N" horiz-adv-x="1554" d="M471 1516l582 -924l-9 924h371v-1516h-336l-579 913l8 -913h-371v1516h334z" />
<glyph unicode="O" horiz-adv-x="1742" d="M72 739v2q0 240 113.5 426.5t293.5 281.5t391 95q344 0 572.5 -231.5t228.5 -555t-228.5 -555t-574.5 -231.5q-229 0 -415.5 112t-283.5 285.5t-97 370.5zM459 762v-2q0 -182 114.5 -315.5t303.5 -133.5q190 0 298.5 139.5t108.5 305.5q0 168 -109.5 308t-302.5 140 q-190 0 -301.5 -134t-111.5 -308z" />
<glyph unicode="P" horiz-adv-x="1302" d="M137 1516h496q197 0 298 -28t169 -83q178 -147 178 -401q0 -117 -44 -226.5t-116 -171.5q-84 -70 -179 -100.5t-263 -30.5h-152v-475h-387v1516zM524 1176v-361h142q98 0 149 23q92 41 92 159q0 115 -96 156q-53 23 -160 23h-127z" />
<glyph unicode="Q" horiz-adv-x="1773" d="M1751 281v-308q-57 -4 -96 -4q-244 0 -357 119q-193 -119 -426 -119q-236 0 -422 116t-282 292t-96 373q0 203 95 382t280.5 295.5t421 116.5t424 -113.5t286.5 -288.5t98 -372q0 -248 -125 -438q56 -51 199 -51zM870 1204h-2q-135 0 -237.5 -76.5t-147.5 -216.5 q-16 -51 -16 -61q135 43 223 43q174 0 322 -102q121 -84 237 -213q41 78 41 192q0 195 -122 314.5t-298 119.5zM868 309h2q102 0 154 31q-57 76 -129 135q-106 90 -244 90q-86 0 -141 -22q45 -111 149.5 -172.5t208.5 -61.5z" />
<glyph unicode="R" horiz-adv-x="1337" d="M137 0v1516h496q330 0 469 -109q184 -143 184 -414q0 -156 -76 -274q-68 -106 -196 -162l313 -557h-399l-396 731h64q170 0 233 41q37 25 61.5 75t24.5 111q0 119 -90 177q-66 41 -157 41h-144v-1176h-387z" />
<glyph unicode="S" horiz-adv-x="1173" d="M51 502h385q0 -115 51.5 -161t106.5 -46q66 0 106.5 45t40.5 100.5t-51 88t-246 114.5l-82 35q-33 14 -93 54t-97 82t-67.5 112.5t-30.5 150.5q0 215 161.5 341t368.5 126q68 0 133.5 -13t134 -48t120.5 -86t86 -135t36 -189h-383q-4 31 -9 47.5t-18.5 44t-42 42 t-69.5 14.5q-53 0 -93 -34t-40 -85t49 -83t264 -128q201 -90 277.5 -191.5t76.5 -242.5q0 -96 -26.5 -179t-86 -154t-165 -112t-250.5 -41q-285 0 -420 147q-127 138 -127 357v27z" />
<glyph unicode="T" horiz-adv-x="1021" d="M319 0v1176h-299v340h984v-340h-297v-1176h-388z" />
<glyph unicode="U" horiz-adv-x="1429" d="M133 1516h387v-916q0 -119 27 -182q47 -106 170 -107q127 0 168 99q25 57 24 190v916h387v-916q0 -180 -36.5 -282.5t-114.5 -182.5q-160 -164 -424 -164q-287 0 -436 162q-92 100 -122 197.5t-30 269.5v916z" />
<glyph unicode="V" horiz-adv-x="1478" d="M539 0l-506 1516h397l307 -1063l310 1063h399l-508 -1516h-399z" />
<glyph unicode="W" horiz-adv-x="2009" d="M424 0l-391 1516h393l207 -986l223 986h297l223 -990l207 990h391l-401 -1516h-340l-232 981l-227 -981h-350z" />
<glyph unicode="X" horiz-adv-x="1554" d="M23 0l530 807l-469 709h438l260 -433l252 433h436l-462 -717l524 -799h-438l-328 537l-311 -537h-432z" />
<glyph unicode="Y" horiz-adv-x="1325" d="M471 0v551l-453 965h420l226 -609l227 609h416l-449 -965v-551h-387z" />
<glyph unicode="Z" horiz-adv-x="1021" d="M989 1202l-483 -862h483v-340h-956v254l522 922h-522v340h956v-314z" />
<glyph unicode="[" horiz-adv-x="968" d="M821 -164v-274h-626v1954h626v-275h-299v-1405h299z" />
<glyph unicode="\" horiz-adv-x="1214" d="M688 -205l-541 1721h377l543 -1721h-379z" />
<glyph unicode="]" horiz-adv-x="968" d="M147 -438v274h299v1405h-299v275h627v-1954h-627z" />
<glyph unicode="^" horiz-adv-x="1228" d="M88 768l356 748h340l357 -748h-369l-160 457l-157 -457h-367z" />
<glyph unicode="_" horiz-adv-x="1024" d="M1024 -256h-1024v102h1024v-102z" />
<glyph unicode="`" horiz-adv-x="1136" d="M332 1718l495 -262l-94 -199l-506 222z" />
<glyph unicode="a" horiz-adv-x="1441" d="M1317 1137v-1137h-340v123q-43 -80 -136 -121t-200 -41q-260 0 -415.5 177t-155.5 431q0 270 168 438.5t403 168.5q127 0 211 -48.5t125 -111.5v121h340zM410 565v-2q0 -98 72.5 -191t209.5 -93q160 0 238 127q41 63 47 145q1 11 1 23q0 64 -30 126q-74 158 -258 158 q-135 0 -207.5 -91t-72.5 -202z" />
<glyph unicode="b" horiz-adv-x="1419" d="M123 0v1516h340v-383v-86q121 129 330 129q94 0 188 -35t179 -102.5t138.5 -188.5t53.5 -275q0 -291 -170 -452.5t-404 -161.5q-113 0 -202 47t-127 113v-121h-326zM1012 569v2q0 115 -79 201t-200 86q-129 0 -205.5 -87t-76.5 -200q0 -123 76.5 -207.5t199.5 -84.5 q125 0 205 86.5t80 203.5z" />
<glyph unicode="c" horiz-adv-x="1335" d="M926 432h346q-47 -201 -210 -335t-386 -134q-256 0 -432 177t-176 431q0 252 173 428.5t427 176.5q225 0 392 -133.5t210 -344.5h-344q-76 160 -246 160q-8 0 -15 1q-107 0 -182 -81q-74 -84 -73.5 -209t75 -206.5t195.5 -81.5q166 -1 246 151z" />
<glyph unicode="d" horiz-adv-x="1429" d="M1307 1516v-1516h-324v123q-111 -160 -344 -160q-254 0 -411.5 174t-157.5 434q0 276 166.5 440.5t396.5 164.5q199 0 334 -136v123v353h340zM410 573v-2q0 -129 81.5 -209.5t202.5 -80.5q125 0 211 86q80 80 80 194v17q0 121 -84 200q-80 80 -203 80q-137 0 -212.5 -87 t-75.5 -198z" />
<glyph unicode="e" horiz-adv-x="1323" d="M1247 451h-846q10 -90 85 -145.5t178 -55.5q133 0 206 106h349q-82 -188 -232 -290q-143 -102 -323 -103q-246 0 -424.5 175t-178.5 427q0 244 171 427.5t425 183.5q260 0 430 -181q167 -179 167 -436q0 -52 -7 -108zM406 709h507q-8 57 -72.5 118.5t-181 61.5 t-181 -61.5t-72.5 -118.5z" />
<glyph unicode="f" horiz-adv-x="643" d="M135 0v879h-127v258h127v49q0 96 29 163.5t70.5 104.5t111.5 58.5t129.5 26.5t142.5 5v-256q-45 0 -68.5 -3t-49 -28.5t-25.5 -76.5v-43h143v-258h-143v-879h-340z" />
<glyph unicode="g" horiz-adv-x="1419" d="M1300 1137v-1000q0 -258 -67 -375q-72 -115 -223.5 -191.5t-352.5 -76.5q-141 0 -250.5 39t-174 101.5t-98.5 128t-44 131.5h393q31 -70 109 -99q41 -14 90 -14q111 0 193.5 69.5t82.5 206.5v68q-37 -63 -116.5 -112.5t-198.5 -49.5q-240 0 -406.5 166t-166.5 432 q0 279 170 446t403 167q221 0 318 -144v107h339zM410 573v-2q0 -131 80.5 -210.5t191.5 -79.5q121 0 199 77q74 78 80 197q0 131 -72 213q-72 88 -205 88q-113 0 -193.5 -81t-80.5 -202z" />
<glyph unicode="h" horiz-adv-x="1294" d="M123 0v1516h340v-340v-144q86 143 297 144q240 0 338 -162q78 -125 78 -379v-635h-340v618q0 111 -35 166q-47 72 -148 72q-123 0 -166 -92q-25 -49 -24 -133v-631h-340z" />
<glyph unicode="i" horiz-adv-x="585" d="M123 1257v259h340v-259h-340zM123 0v1137h340v-1137h-340z" />
<glyph unicode="j" horiz-adv-x="657" d="M178 1257v259h340v-259h-340zM518 1137v-1112q0 -111 -14.5 -182.5t-56 -136t-129 -94.5t-222.5 -30h-84v258h45q35 0 58.5 11.5t36 25.5t18.5 41t7 44.5t1 49.5v1125h340z" />
<glyph unicode="k" horiz-adv-x="1210" d="M135 0v1516h340v-791l320 412h403l-428 -500l416 -637h-385l-326 547v-547h-340z" />
<glyph unicode="l" horiz-adv-x="585" d="M123 0v1516h340v-1516h-340z" />
<glyph unicode="m" horiz-adv-x="1984" d="M123 0v1137h317v-121q20 41 70 80q96 80 248 80q156 0 260 -109q39 -39 67 -94q39 61 82 98q115 104 279 105q188 0 299 -115q78 -84 100.5 -166t22.5 -274v-621h-340v604q0 109 -23 160q-35 92 -151 92q-123 0 -164 -94q-25 -51 -25 -141v-621h-340v618q0 90 -20 142 q-41 96 -150 96q-123 0 -168 -100q-25 -55 -24 -152v-604h-340z" />
<glyph unicode="n" horiz-adv-x="1294" d="M123 0v1137h317v-121q23 31 39.5 50t54 49t93 45.5t127.5 15.5q109 0 190.5 -35t124.5 -84t68.5 -118t32 -120t6.5 -108v-711h-340v621q0 111 -37 173t-142 62q-115 0 -154.5 -65.5t-39.5 -172.5v-618h-340z" />
<glyph unicode="o" horiz-adv-x="1363" d="M70 569v2q0 106 38.5 211t111.5 194t192.5 143.5t269 54.5t269.5 -54.5t193 -143.5t111.5 -193.5t38.5 -213t-38.5 -213t-111.5 -193.5t-193 -143.5t-269.5 -54.5t-269 54.5t-192.5 143.5t-111.5 193t-38.5 213zM410 569v-2q0 -121 79.5 -202.5t192.5 -81.5t192.5 81.5 t79.5 204.5t-79.5 205t-192.5 82t-192.5 -82t-79.5 -205z" />
<glyph unicode="p" horiz-adv-x="1427" d="M123 -379v1516h319v-125q141 164 361 164q143 0 254.5 -58.5t175 -153t94.5 -198.5t31 -209q0 -250 -157 -423t-396 -173q-207 0 -342 141v-102v-379h-340zM1018 567v2q0 111 -77 200t-208 89q-123 0 -205 -86q-80 -84 -79 -207q0 -121 81 -203q84 -84 203 -83 q127 0 206 86.5t79 201.5z" />
<glyph unicode="q" horiz-adv-x="1429" d="M1307 1137v-1516h-340v379v117q-125 -154 -349 -154q-238 0 -393 168t-155 416q0 287 164.5 458t406.5 171q225 0 340 -164v125h326zM410 561v-2q0 -100 75.5 -189t210.5 -89q117 0 201 84q82 82 82 200v16q0 111 -80 191q-86 86 -207 86q-129 0 -205.5 -88t-76.5 -209z " />
<glyph unicode="r" horiz-adv-x="743" d="M121 0v1137h319v-127q16 33 32.5 53t49.5 51t85 46.5t122 15.5v-342h-12q-133 0 -194.5 -52.5t-61.5 -171.5v-610h-340z" />
<glyph unicode="s" horiz-adv-x="1021" d="M940 817h-334q-2 14 -4 24.5t-11 27t-32.5 25.5t-58.5 9q-49 0 -73 -23.5t-24 -52.5q0 -61 175 -112q78 -20 117.5 -33.5t102 -43.5t94.5 -63.5t57.5 -89t25.5 -127.5q0 -182 -133 -289.5t-330 -107.5q-72 0 -142.5 17.5t-141 57.5t-120 117.5t-59.5 184.5h338 q14 -104 129 -105q47 0 83 25t36 64q0 16 -4 29.5t-17.5 24.5t-28 19t-43 20.5t-53 20.5t-70.5 26l-85 32q-121 39 -196 113.5t-75 183.5q0 172 129.5 278.5t311.5 106.5q66 0 129 -15.5t133 -51.5t117 -111t57 -181z" />
<glyph unicode="t" horiz-adv-x="718" d="M190 0v879h-167v258h167v379h340v-379h164v-258h-164v-879h-340z" />
<glyph unicode="u" horiz-adv-x="1298" d="M1176 1137v-1137h-318v121q-23 -31 -39 -50.5t-54 -49t-94.5 -45t-127.5 -15.5q-111 0 -192 35t-124 84t-69.5 117.5t-32.5 120t-6 108.5v711h340v-621q0 -111 38 -173t142 -62q115 0 156 65.5t41 171.5v619h340z" />
<glyph unicode="v" horiz-adv-x="1212" d="M1178 1137l-410 -1137h-326l-407 1137h352l219 -709l219 709h353z" />
<glyph unicode="w" horiz-adv-x="1740" d="M362 0l-348 1137h353l174 -707l186 707h287l192 -707l170 707h350l-348 -1137h-315l-195 735l-190 -735h-316z" />
<glyph unicode="x" horiz-adv-x="1290" d="M2 0l432 608l-383 529h408l184 -299l182 299h404l-383 -529l440 -608h-416l-227 352l-231 -352h-410z" />
<glyph unicode="y" horiz-adv-x="1175" d="M244 -379l180 436l-422 1080h363l231 -660l217 660h361l-570 -1516h-360z" />
<glyph unicode="z" horiz-adv-x="909" d="M31 0v233l479 646h-479v258h846v-258l-445 -621h445v-258h-846z" />
<glyph unicode="{" horiz-adv-x="1134" d="M989 1516v-259h-112q-119 0 -119 -133v-428q0 -55 -23.5 -97t-55.5 -64.5t-64.5 -37t-55.5 -18.5l-22 -6q78 -4 148.5 -47t72.5 -141v-435q0 -133 119 -133h112v-258h-262q-131 0 -222 72t-91 211v434q0 39 -22.5 66.5t-59.5 39t-64.5 15.5t-52.5 4v352q25 0 52.5 5.5 t64.5 17.5t59.5 42t22.5 73v442q0 139 91 211t222 72h262z" />
<glyph unicode="|" horiz-adv-x="1136" d="M381 1536h375v-2048h-375v2048z" />
<glyph unicode="}" horiz-adv-x="1134" d="M145 1257v259h263q131 0 222 -72t91 -211v-442q0 -43 22.5 -73t59.5 -42t64.5 -17.5t52.5 -5.5v-352q-25 0 -52.5 -4t-64.5 -15.5t-59.5 -39t-22.5 -66.5v-434q0 -139 -91 -211t-222 -72h-263v258h113q119 0 119 133v435q0 41 23.5 76.5t55 56t64.5 35t55 22.5l23 6 q-31 2 -51.5 5t-56 17.5t-57 35t-39 61.5t-17.5 96v428q0 133 -119 133h-113z" />
<glyph unicode="~" horiz-adv-x="1228" d="M1018 772l74 -323q-45 -59 -71 -89t-78 -61t-112 -31q-86 0 -208 68q-127 72 -236 72q-61 0 -101 -38t-75 -104l-74 320q100 182 260 182q80 0 228 -66l44 -19l47 -20l41 -17q24 -9 42 -13t35 -4q39 0 75.5 24.5t54.5 46.5z" />
<glyph unicode="&#xa1;" horiz-adv-x="681" d="M166 788v349h350v-349h-350zM166 -379v1016h350v-1016h-350z" />
<glyph unicode="&#xa2;" d="M774 63h-280v216q-104 35 -181 96t-114 132t-54.5 133t-17.5 124q0 96 35 189.5t121 180.5t211 126v215h268v-207q170 -47 268 -169t109 -239h-353q-45 82 -145 82q-72 0 -124 -50t-52 -124q0 -72 51 -122t125 -50q82 0 137 70h361q-25 -129 -119 -241t-246 -146v-216z " />
<glyph unicode="&#xa3;" d="M846 854v-272h-158q68 -80 68 -142q0 -66 -80 -137h84q66 0 104 21q63 37 64 118q0 29 -15 74h330q23 -72 23 -131q0 -129 -95 -240q-123 -145 -354 -145h-727v303h100q88 0 137.5 21.5t49.5 89.5q0 20 -6 40.5t-17.5 41t-20.5 33t-24.5 31t-17.5 22.5h-262v272h98 q-57 86 -57 193q0 190 150.5 344.5t393.5 154.5q223 0 376 -137t161 -369h-356q-18 166 -174 166q-72 0 -118 -52t-46 -118q0 -98 69 -182h320z" />
<glyph unicode="&#xa4;" d="M1100 78l-168 170q-135 -90 -299 -90q-158 0 -297 90l-170 -168l-166 164l174 174q-80 127 -80 278q0 160 86 293l-180 176l168 168l180 -180q129 82 284.5 82t280.5 -80l181 176l163 -166l-174 -174q88 -137 88 -295q0 -152 -77 -278l172 -172zM412 698v-2 q0 -92 64.5 -157.5t156.5 -65.5q90 0 155.5 65.5t65.5 159.5q0 92 -64.5 159t-156.5 67t-156.5 -67t-64.5 -159z" />
<glyph unicode="&#xa5;" d="M1225 1071v-283h-348l-54 -100v-61h402v-285h-404v-342h-381v342h-401v285h401v55l-53 106h-344v283h203l-244 445h410l223 -486l227 486h404l-240 -445h199z" />
<glyph unicode="&#xa6;" horiz-adv-x="1136" d="M381 1382h375v-716h-375v716zM381 358h375v-716h-375v716z" />
<glyph unicode="&#xa7;" horiz-adv-x="1372" d="M1196 1122h-334q-33 119 -178 119q-143 0 -143 -108q0 -68 121 -121l372 -168q51 -23 85 -43.5t79 -60.5t68.5 -100t23.5 -136q0 -74 -29.5 -139.5t-59.5 -98.5t-87 -86q31 -43 48.5 -70.5t37 -89t19.5 -129.5q0 -180 -133.5 -313t-378.5 -133q-51 0 -110.5 9t-140.5 40 t-146.5 81t-116 142.5t-60.5 210.5h336q29 -174 231 -174q94 0 139.5 42t45.5 91q0 55 -46 90t-134 74l-351 162q-55 25 -88 45.5t-83 63.5t-75.5 108.5t-25.5 151.5q0 186 194 329q-63 100 -63 228q0 137 76 232t183.5 134t229.5 39q223 0 355.5 -125t138.5 -297zM989 446 v3q0 41 -33.5 71.5t-105.5 61.5l-379 170q-80 -39 -80 -113q0 -37 21.5 -65.5t39 -39t48.5 -24.5l413 -191q76 49 76 127z" />
<glyph unicode="&#xa8;" horiz-adv-x="1136" d="M492 1628v-309h-326v309h326zM969 1628v-309h-326v309h326z" />
<glyph unicode="&#xa9;" horiz-adv-x="1638" d="M825 1544h2q322 0 549.5 -232.5t227.5 -553.5q0 -326 -229.5 -556.5t-553 -230.5t-554 231.5t-230.5 555.5q0 322 228 554t560 232zM823 1386h-2q-258 0 -436 -185t-178 -443q0 -262 180 -445.5t434 -183.5t433.5 183.5t179.5 445.5q0 258 -177.5 443t-433.5 185z M1219 893h-215q-37 139 -173 139q-117 0 -168 -82t-51 -188q0 -115 55.5 -190.5t163.5 -75.5q16 0 34 4t49.5 17t57 54t38.5 103h217q-14 -170 -123 -268.5t-281 -98.5q-197 0 -313.5 128t-116.5 329q0 188 117 322.5t319 134.5q172 0 277 -99.5t113 -228.5z" />
<glyph unicode="&#xaa;" horiz-adv-x="788" d="M698 1524v-586h-202v59q-43 -80 -154 -79q-123 0 -205 90t-82 223q0 143 86 228t205 85q104 0 150 -80v60h202zM258 1231v-2q0 -41 30.5 -80t88.5 -39q76 0 108 68q12 27 13 53q0 31 -11 57q-25 63 -110 64q-57 0 -88 -38t-31 -83z" />
<glyph unicode="&#xab;" horiz-adv-x="864" d="M49 582l201 372h237l-200 -372l200 -373h-237zM422 582l201 372h237l-201 -372l201 -373h-237z" />
<glyph unicode="&#xac;" horiz-adv-x="1228" d="M94 911h1041v-690h-328v363h-713v327z" />
<glyph unicode="&#xad;" horiz-adv-x="575" d="M0 758h575v-334h-575v334z" />
<glyph unicode="&#xae;" horiz-adv-x="1638" d="M825 1544h2q322 0 549.5 -233.5t227.5 -552.5q0 -326 -229.5 -556.5t-553 -230.5t-554 231.5t-230.5 555.5q0 322 228 554t560 232zM823 1386h-2q-258 0 -436 -184t-178 -444t181 -444.5t433 -184.5q254 0 433.5 183.5t179.5 445.5q0 256 -177.5 442t-433.5 186z M485 1202h369q137 0 228.5 -60.5t91.5 -185.5q0 -147 -142 -211q55 -23 87 -66.5t38 -135.5q12 -172 27 -213h-211q-8 14 -13.5 58t-10.5 94t-5 57q-4 25 -9 41t-19.5 39.5t-46 35t-81.5 11.5h-86v-336h-217v872zM819 1053h-117v-246h105q150 0 149 133q0 113 -137 113z" />
<glyph unicode="&#xaf;" horiz-adv-x="1136" d="M936 1606v-258h-735v258h735z" />
<glyph unicode="&#xb0;" horiz-adv-x="819" d="M702 1165v-2q0 -121 -85 -206t-207.5 -85t-207.5 85t-85 208t85 208t207.5 85t207.5 -85t85 -208zM289 1165v-2q0 -49 35.5 -86t85 -37t85 37t35.5 88q0 49 -35.5 87t-85 38t-85 -38t-35.5 -87z" />
<glyph unicode="&#xb1;" horiz-adv-x="1228" d="M451 860v279h327v-279h352v-328h-352v-266h-327v266h-353v328h353zM98 -168v328h1032v-328h-1032z" />
<glyph unicode="&#xb2;" horiz-adv-x="833" d="M770 823v-217h-698v199l276 227q133 109 133 197q0 86 -78 86q-90 0 -90 -139h-252q4 137 60 217q98 141 297 141q172 0 260 -70.5t88 -203.5q0 -92 -28.5 -152.5t-102.5 -124.5l-184 -160h319z" />
<glyph unicode="&#xb3;" horiz-adv-x="833" d="M45 887h264q6 -23 12.5 -36t30 -27.5t60.5 -14.5q98 0 98 88q0 31 -24.5 54.5t-75.5 23.5h-113v184h49q123 0 123 86q0 68 -66 68q-33 0 -50 -14.5t-19 -25.5t-4 -32h-258q0 88 36.5 149.5t95 90t108.5 41t100 12.5q139 0 225 -75t86 -177q0 -125 -117 -188 q80 -27 125 -85.5t45 -131.5q0 -119 -108.5 -204t-257.5 -85q-94 0 -178.5 32.5t-129.5 94.5q-47 63 -57 172z" />
<glyph unicode="&#xb4;" horiz-adv-x="1136" d="M309 1473l492 264l108 -242l-503 -223z" />
<glyph unicode="&#xb5;" horiz-adv-x="1298" d="M106 -389v1526h340v-562q0 -127 41 -202q51 -92 160 -92t160 92q43 76 43 202v562h340v-1137h-324v141q-74 -162 -215 -161q-137 0 -205 110v-98v-381h-340z" />
<glyph unicode="&#xb6;" horiz-adv-x="1435" d="M420 -211v938q-195 0 -314.5 99.5t-119.5 287.5q0 401 520 402h737v-242h-100v-1485h-262v1485h-199v-1485h-262z" />
<glyph unicode="&#xb7;" horiz-adv-x="643" d="M500 692v-348h-355v348h355z" />
<glyph unicode="&#xb8;" horiz-adv-x="1136" d="M637 0l-59 -109q18 6 43 7q68 0 121 -48.5t53 -138.5q0 -84 -60.5 -148.5t-169.5 -64.5q-23 0 -48 5t-65 21.5t-71 59.5t-39 107h156l12 -28q4 -9 18.5 -19.5t36.5 -10.5q35 0 54.5 21.5t19.5 56.5q0 31 -19.5 50.5t-50.5 19.5q-33 0 -55 -31l-133 72l86 178h170z" />
<glyph unicode="&#xb9;" horiz-adv-x="833" d="M553 1516v-910h-252v692h-160v218h412z" />
<glyph unicode="&#xba;" horiz-adv-x="788" d="M76 1231v2q0 121 84 216t233.5 95t233.5 -96t84 -217t-84 -217t-233.5 -96t-233.5 96t-84 217zM279 1231v-2q0 -49 33.5 -84t80.5 -35t81 35t34 86t-34 86t-81 35t-80.5 -35t-33.5 -86z" />
<glyph unicode="&#xbb;" horiz-adv-x="864" d="M614 954l201 -372l-201 -373h-237l201 373l-201 372h237zM242 954l200 -372l-200 -373h-238l201 373l-201 372h238z" />
<glyph unicode="&#xbc;" horiz-adv-x="1843" d="M1300 1516l-636 -1516h-279l635 1516h280zM1636 909v-559h107v-192h-107v-158h-252v158h-428v176l439 575h241zM510 1516v-910h-252v692h-160v218h412zM1389 590l-162 -240h162v240z" />
<glyph unicode="&#xbd;" horiz-adv-x="1884" d="M510 1516v-910h-252v692h-160v218h412zM1300 1516l-636 -1516h-279l635 1516h280zM1786 217v-217h-699v199l277 227q133 109 133 197q0 86 -78 86q-90 0 -90 -140h-252q4 137 60 217q98 141 297 142q172 0 260 -71t88 -204q0 -92 -29 -152.5t-102 -123.5l-185 -160h320z " />
<glyph unicode="&#xbe;" horiz-adv-x="2048" d="M1610 598l-172 -248h172v248zM1532 1516l-637 -1516h-279l635 1516h281zM1858 909v-559h106v-192h-106v-158h-252v158h-428v176l438 575h242zM84 887h264q6 -23 12.5 -36t30 -27.5t60.5 -14.5q98 0 98 88q0 31 -24.5 54.5t-75.5 23.5h-113v184h49q123 0 123 86 q0 68 -66 68q-33 0 -50 -14.5t-19 -25.5t-4 -32h-258q0 88 36.5 149.5t95 90t108.5 41t100 12.5q139 0 225 -75t86 -177q0 -125 -117 -188q80 -27 125 -85.5t45 -131.5q0 -119 -108.5 -204t-257.5 -85q-94 0 -178.5 32.5t-129.5 94.5q-47 63 -57 172z" />
<glyph unicode="&#xbf;" horiz-adv-x="1212" d="M473 788v349h356v-349h-356zM473 653h356q-2 -100 -50 -176t-163 -184q-139 -137 -139 -225q0 -127 119 -127q131 0 139 153q2 14 2 43h375q2 -18 2 -37q0 -221 -151.5 -365.5t-387.5 -144.5q-225 0 -358 134.5t-133 300.5q0 88 40 168.5t78 121.5t113 111q94 88 124 132 t34 95z" />
<glyph unicode="&#xc0;" horiz-adv-x="1552" d="M508 219l-70 -219h-420l600 1516h334l582 -1516h-424l-72 219h-530zM938 526l-170 529l-164 -529h334zM541 2015l495 -262l-94 -199l-506 222z" />
<glyph unicode="&#xc1;" horiz-adv-x="1552" d="M508 219l-70 -219h-420l600 1516h334l582 -1516h-424l-72 219h-530zM938 526l-170 529l-164 -529h334zM518 1769l492 265l108 -242l-504 -223z" />
<glyph unicode="&#xc2;" horiz-adv-x="1552" d="M508 219l-70 -219h-420l600 1516h334l582 -1516h-424l-72 219h-530zM938 526l-170 529l-164 -529h334zM893 1948l328 -340h-328l-115 116l-114 -116h-332l340 340h221z" />
<glyph unicode="&#xc3;" horiz-adv-x="1552" d="M508 219l-70 -219h-420l600 1516h334l582 -1516h-424l-72 219h-530zM938 526l-170 529l-164 -529h334zM1079 1952l113 -226q-121 -76 -231 -75q-25 0 -166 26q-121 27 -162 27q-78 0 -158 -49l-113 231q129 72 226 72q55 0 166 -25q102 -27 166 -26q100 0 159 45z" />
<glyph unicode="&#xc4;" horiz-adv-x="1552" d="M508 219l-70 -219h-420l600 1516h334l582 -1516h-424l-72 219h-530zM938 526l-170 529l-164 -529h334zM700 1925v-309h-325v309h325zM1178 1925v-309h-326v309h326z" />
<glyph unicode="&#xc5;" horiz-adv-x="1552" d="M508 219l-70 -219h-420l600 1516h334l582 -1516h-424l-72 219h-530zM938 526l-170 529l-164 -529h334zM776 2083h2q106 0 181 -76t75 -182.5t-75.5 -182t-182 -75.5t-182.5 75.5t-76 182t76 182.5t182 76zM776 1917h-2q-37 0 -62.5 -27.5t-25.5 -64.5t26.5 -62.5 t63.5 -25.5t63.5 25.5t26.5 64.5q0 37 -25.5 63.5t-64.5 26.5z" />
<glyph unicode="&#xc6;" horiz-adv-x="1996" d="M-20 0l1052 1516h862v-340h-467v-236h453v-340h-453v-260h467v-340h-841v254h-441l-163 -254h-469zM770 553h283v412z" />
<glyph unicode="&#xc7;" horiz-adv-x="1703" d="M909 -27l-45 -82q18 6 43 7q61 0 117.5 -48.5t56.5 -138.5q0 -84 -60 -148.5t-169 -64.5q-23 0 -48.5 5t-65.5 21.5t-70.5 59.5t-38.5 107h155l13 -28q4 -9 18 -19.5t37 -10.5q35 0 54.5 21.5t19.5 56.5q0 31 -19.5 50.5t-50.5 19.5q-33 0 -55 -31l-133 72l77 160 q-297 43 -483 267t-186 511q0 197 93 374t278.5 293.5t422.5 116.5q168 0 313.5 -60.5t236.5 -153.5t147.5 -194.5t72.5 -195.5h-405q-39 104 -132 184t-235 80q-184 0 -294.5 -134t-110.5 -308q0 -180 112.5 -315.5t294.5 -135.5q246 0 365 256h405q-63 -258 -264 -421 t-467 -173z" />
<glyph unicode="&#xc8;" horiz-adv-x="1081" d="M137 0v1516h858v-340h-471v-236h457v-340h-457v-260h471v-340h-858zM305 2056l496 -262l-94 -199l-506 222z" />
<glyph unicode="&#xc9;" horiz-adv-x="1081" d="M137 0v1516h858v-340h-471v-236h457v-340h-457v-260h471v-340h-858zM283 1810l491 265l109 -242l-504 -223z" />
<glyph unicode="&#xca;" horiz-adv-x="1081" d="M137 0v1516h858v-340h-471v-236h457v-340h-457v-260h471v-340h-858zM657 1989l328 -340h-328l-114 116l-115 -116h-332l340 340h221z" />
<glyph unicode="&#xcb;" horiz-adv-x="1081" d="M137 0v1516h858v-340h-471v-236h457v-340h-457v-260h471v-340h-858zM465 1966v-309h-326v309h326zM942 1966v-309h-326v309h326z" />
<glyph unicode="&#xcc;" horiz-adv-x="661" d="M137 0v1516h387v-1516h-387zM43 2056l496 -262l-95 -199l-505 222z" />
<glyph unicode="&#xcd;" horiz-adv-x="661" d="M137 0v1516h387v-1516h-387zM123 1810l491 265l109 -242l-504 -223z" />
<glyph unicode="&#xce;" horiz-adv-x="661" d="M137 0v1516h387v-1516h-387zM446 1989l328 -340h-328l-114 116l-115 -116h-332l340 340h221z" />
<glyph unicode="&#xcf;" horiz-adv-x="661" d="M137 0v1516h387v-1516h-387zM254 1966v-309h-326v309h326zM731 1966v-309h-325v309h325z" />
<glyph unicode="&#xd0;" horiz-adv-x="1519" d="M137 946v570h510q74 0 118 -2.5t128 -16.5t146.5 -42t137 -85t132.5 -137q139 -190 139 -471q0 -330 -190.5 -546t-548.5 -216h-572v606h-137v340h137zM524 1176v-230h221v-340h-221v-266h166q104 0 179 34t115 94t58.5 131t18.5 157q0 166 -74 280q-92 139 -295 140 h-168z" />
<glyph unicode="&#xd1;" horiz-adv-x="1554" d="M471 1516l582 -924l-9 924h371v-1516h-336l-579 913l8 -913h-371v1516h334zM1079 1952l113 -226q-121 -76 -231 -75q-25 0 -166 26q-121 27 -162 27q-78 0 -158 -49l-113 231q129 72 226 72q55 0 166 -25q102 -27 166 -26q100 0 159 45z" />
<glyph unicode="&#xd2;" horiz-adv-x="1742" d="M72 739v2q0 240 113.5 426.5t293.5 281.5t391 95q344 0 572.5 -231.5t228.5 -555t-228.5 -555t-574.5 -231.5q-229 0 -415.5 112t-283.5 285.5t-97 370.5zM459 762v-2q0 -182 114.5 -315.5t303.5 -133.5q190 0 298.5 139.5t108.5 305.5q0 168 -109.5 308t-302.5 140 q-190 0 -301.5 -134t-111.5 -308zM635 2056l495 -262l-94 -199l-506 222z" />
<glyph unicode="&#xd3;" horiz-adv-x="1742" d="M72 739v2q0 240 113.5 426.5t293.5 281.5t391 95q344 0 572.5 -231.5t228.5 -555t-228.5 -555t-574.5 -231.5q-229 0 -415.5 112t-283.5 285.5t-97 370.5zM459 762v-2q0 -182 114.5 -315.5t303.5 -133.5q190 0 298.5 139.5t108.5 305.5q0 168 -109.5 308t-302.5 140 q-190 0 -301.5 -134t-111.5 -308zM612 1810l492 265l108 -242l-503 -223z" />
<glyph unicode="&#xd4;" horiz-adv-x="1742" d="M72 739v2q0 240 113.5 426.5t293.5 281.5t391 95q344 0 572.5 -231.5t228.5 -555t-228.5 -555t-574.5 -231.5q-229 0 -415.5 112t-283.5 285.5t-97 370.5zM459 762v-2q0 -182 114.5 -315.5t303.5 -133.5q190 0 298.5 139.5t108.5 305.5q0 168 -109.5 308t-302.5 140 q-190 0 -301.5 -134t-111.5 -308zM987 1989l328 -340h-328l-115 116l-114 -116h-332l340 340h221z" />
<glyph unicode="&#xd5;" horiz-adv-x="1742" d="M72 739v2q0 240 113.5 426.5t293.5 281.5t391 95q344 0 572.5 -231.5t228.5 -555t-228.5 -555t-574.5 -231.5q-229 0 -415.5 112t-283.5 285.5t-97 370.5zM459 762v-2q0 -182 114.5 -315.5t303.5 -133.5q190 0 298.5 139.5t108.5 305.5q0 168 -109.5 308t-302.5 140 q-190 0 -301.5 -134t-111.5 -308zM1174 1952l112 -226q-121 -76 -231 -75q-25 0 -166 26q-121 27 -162 27q-78 0 -158 -49l-112 231q129 72 225 72q55 0 166 -25q102 -27 166 -26q101 0 160 45z" />
<glyph unicode="&#xd6;" horiz-adv-x="1742" d="M72 739v2q0 240 113.5 426.5t293.5 281.5t391 95q344 0 572.5 -231.5t228.5 -555t-228.5 -555t-574.5 -231.5q-229 0 -415.5 112t-283.5 285.5t-97 370.5zM459 762v-2q0 -182 114.5 -315.5t303.5 -133.5q190 0 298.5 139.5t108.5 305.5q0 168 -109.5 308t-302.5 140 q-190 0 -301.5 -134t-111.5 -308zM795 1966v-309h-326v309h326zM1272 1966v-309h-326v309h326z" />
<glyph unicode="&#xd7;" horiz-adv-x="1228" d="M346 0l-231 231l266 267l-266 266l231 231l266 -266l269 268l233 -233l-268 -266l264 -267l-231 -231l-265 264z" />
<glyph unicode="&#xd8;" horiz-adv-x="1742" d="M1214 1473l62 83h373l-193 -258q215 -233 215 -540q0 -322 -228.5 -554.5t-574.5 -232.5q-174 0 -342 72l-65 -84h-373l195 260q-211 227 -211 539q0 332 230 559t570 227q188 1 342 -71zM514 528l485 656q-51 20 -127 20q-195 0 -304 -136t-109 -304q0 -134 55 -236z M1225 991l-486 -657q61 -23 135 -23q100 0 182.5 42t129.5 109.5t72.5 143.5t25.5 150q0 124 -59 235z" />
<glyph unicode="&#xd9;" horiz-adv-x="1429" d="M133 1516h387v-916q0 -119 27 -182q47 -106 170 -107q127 0 168 99q25 57 24 190v916h387v-916q0 -180 -36.5 -282.5t-114.5 -182.5q-160 -164 -424 -164q-287 0 -436 162q-92 100 -122 197.5t-30 269.5v916zM408 2056l495 -262l-94 -199l-506 222z" />
<glyph unicode="&#xda;" horiz-adv-x="1429" d="M133 1516h387v-916q0 -119 27 -182q47 -106 170 -107q127 0 168 99q25 57 24 190v916h387v-916q0 -180 -36.5 -282.5t-114.5 -182.5q-160 -164 -424 -164q-287 0 -436 162q-92 100 -122 197.5t-30 269.5v916zM528 1810l492 265l108 -242l-503 -223z" />
<glyph unicode="&#xdb;" horiz-adv-x="1429" d="M133 1516h387v-916q0 -119 27 -182q47 -106 170 -107q127 0 168 99q25 57 24 190v916h387v-916q0 -180 -36.5 -282.5t-114.5 -182.5q-160 -164 -424 -164q-287 0 -436 162q-92 100 -122 197.5t-30 269.5v916zM831 1989l328 -340h-328l-114 116l-115 -116h-332l340 340 h221z" />
<glyph unicode="&#xdc;" horiz-adv-x="1429" d="M133 1516h387v-916q0 -119 27 -182q47 -106 170 -107q127 0 168 99q25 57 24 190v916h387v-916q0 -180 -36.5 -282.5t-114.5 -182.5q-160 -164 -424 -164q-287 0 -436 162q-92 100 -122 197.5t-30 269.5v916zM639 1966v-309h-326v309h326zM1116 1966v-309h-325v309h325z " />
<glyph unicode="&#xdd;" horiz-adv-x="1325" d="M471 0v551l-453 965h420l226 -609l227 609h416l-449 -965v-551h-387zM475 1810l492 265l108 -242l-504 -223z" />
<glyph unicode="&#xde;" horiz-adv-x="1302" d="M137 0v1516h387v-199l109 2q197 0 298 -27.5t169 -83.5q178 -147 178 -401q0 -117 -44 -226.5t-116 -170.5q-84 -70 -179 -100.5t-263 -30.5h-152v-279h-387zM524 979v-361h142q98 0 149 23q92 41 92 160q0 115 -96 155q-53 23 -160 23h-127z" />
<glyph unicode="&#xdf;" horiz-adv-x="1421" d="M119 0v874q0 188 26.5 291t104.5 191q86 96 207 147t241 51q209 0 345.5 -129t136.5 -299q0 -168 -146 -264q131 -33 224.5 -141.5t93.5 -253.5q0 -197 -148.5 -350.5t-380.5 -153.5q-94 0 -172 32t-110.5 59.5t-81.5 76.5v-131h-340zM459 971v-543h190q8 -27 16.5 -45 t27 -46t52 -42t80.5 -14q84 0 135.5 56t51.5 128q0 80 -41 123q-63 68 -240 67h-133v256h70q78 0 125 43t47 113q0 76 -50.5 123t-130.5 47q-127 0 -176 -115q-24 -59 -24 -151z" />
<glyph unicode="&#xe0;" horiz-adv-x="1441" d="M1317 1137v-1137h-340v123q-43 -80 -136 -121t-200 -41q-260 0 -415.5 177t-155.5 431q0 270 168 438.5t403 168.5q127 0 211 -48.5t125 -111.5v121h340zM410 565v-2q0 -98 72.5 -191t209.5 -93q160 0 238 127q41 63 47 145q6 76 -29 149q-74 158 -258 158 q-135 0 -207.5 -91t-72.5 -202zM455 1718l495 -262l-94 -199l-506 222z" />
<glyph unicode="&#xe1;" horiz-adv-x="1441" d="M1317 1137v-1137h-340v123q-43 -80 -136 -121t-200 -41q-260 0 -415.5 177t-155.5 431q0 270 168 438.5t403 168.5q127 0 211 -48.5t125 -111.5v121h340zM410 565v-2q0 -98 72.5 -191t209.5 -93q160 0 238 127q41 63 47 145q6 76 -29 149q-74 158 -258 158 q-135 0 -207.5 -91t-72.5 -202zM463 1473l491 264l109 -242l-504 -223z" />
<glyph unicode="&#xe2;" horiz-adv-x="1441" d="M1317 1137v-1137h-340v123q-43 -80 -136 -121t-200 -41q-260 0 -415.5 177t-155.5 431q0 270 168 438.5t403 168.5q127 0 211 -48.5t125 -111.5v121h340zM410 565v-2q0 -98 72.5 -191t209.5 -93q160 0 238 127q41 63 47 145q6 76 -29 149q-74 158 -258 158 q-135 0 -207.5 -91t-72.5 -202zM807 1651l328 -340h-328l-115 116l-114 -116h-332l340 340h221z" />
<glyph unicode="&#xe3;" horiz-adv-x="1441" d="M1317 1137v-1137h-340v123q-43 -80 -136 -121t-200 -41q-260 0 -415.5 177t-155.5 431q0 270 168 438.5t403 168.5q127 0 211 -48.5t125 -111.5v121h340zM410 565v-2q0 -98 72.5 -191t209.5 -93q160 0 238 127q41 63 47 145q6 76 -29 149q-74 158 -258 158 q-135 0 -207.5 -91t-72.5 -202zM1004 1614l112 -225q-121 -76 -231 -76q-25 0 -166 26q-121 27 -162 27q-78 0 -158 -49l-112 231q127 72 225 72q55 0 166 -25q102 -27 166 -26q101 0 160 45z" />
<glyph unicode="&#xe4;" horiz-adv-x="1441" d="M1317 1137v-1137h-340v123q-43 -80 -136 -121t-200 -41q-260 0 -415.5 177t-155.5 431q0 270 168 438.5t403 168.5q127 0 211 -48.5t125 -111.5v121h340zM410 565v-2q0 -98 72.5 -191t209.5 -93q160 0 238 127q41 63 47 145q6 76 -29 149q-74 158 -258 158 q-135 0 -207.5 -91t-72.5 -202zM614 1628v-309h-325v309h325zM1092 1628v-309h-326v309h326z" />
<glyph unicode="&#xe5;" horiz-adv-x="1441" d="M1317 1137v-1137h-340v123q-43 -80 -136 -121t-200 -41q-260 0 -415.5 177t-155.5 431q0 270 168 438.5t403 168.5q127 0 211 -48.5t125 -111.5v121h340zM410 565v-2q0 -98 72.5 -191t209.5 -93q160 0 238 127q41 63 47 145q6 76 -29 149q-74 158 -258 158 q-135 0 -207.5 -91t-72.5 -202zM680 1745h2q106 0 181 -76t75 -182.5t-76 -182t-182.5 -75.5t-182 75.5t-75.5 182t76 182.5t182 76zM680 1579h-2q-37 0 -62.5 -27.5t-25.5 -64.5t26.5 -62.5t63.5 -25.5t63.5 25.5t26.5 64.5q0 37 -25.5 63.5t-64.5 26.5z" />
<glyph unicode="&#xe6;" horiz-adv-x="2234" d="M2161 463h-854q16 -113 94 -163t166 -50q55 0 102 19.5t68.5 38t50.5 50.5h342q-76 -178 -197 -276q-141 -119 -342 -119q-96 0 -177 41t-130 109v-113h-309v113q-100 -150 -328 -150q-135 0 -248.5 57.5t-183.5 147.5t-107.5 194.5t-37.5 204.5q0 258 164.5 433.5 t420.5 175.5q98 0 192.5 -42t127.5 -108v111h309v-109q111 147 315 148q225 0 390 -164q92 -90 142 -231.5t30 -317.5zM410 575v-2q0 -129 82.5 -210.5t205.5 -81.5q117 0 197 82.5t80 201.5q0 127 -76 209q-80 84 -213 84q-137 0 -206.5 -96.5t-69.5 -186.5zM1315 688h518 q-55 199 -254 199q-119 0 -195 -72q-57 -57 -69 -127z" />
<glyph unicode="&#xe7;" horiz-adv-x="1335" d="M715 -33l-41 -76q18 6 43 7q61 0 117.5 -48.5t56.5 -138.5q0 -84 -60.5 -148.5t-168.5 -64.5q-23 0 -48.5 5t-65.5 21.5t-71 59.5t-39 107h156l12 -28q4 -9 18.5 -19.5t37.5 -10.5q35 0 54 21.5t19 56.5q0 31 -19.5 50.5t-49.5 19.5q-33 0 -56 -31l-133 72l74 153 q-211 43 -347 210t-136 386q0 252 173 428.5t427 176.5q225 0 392 -133.5t210 -344.5h-344q-80 152 -246 152q-117 6 -197 -78q-74 -80 -73 -203q0 -125 74.5 -206.5t195.5 -81.5q166 0 246 151h346q-45 -193 -196.5 -324t-360.5 -141z" />
<glyph unicode="&#xe8;" horiz-adv-x="1323" d="M1247 451h-846q10 -90 85 -145.5t178 -55.5q133 0 206 106h349q-82 -188 -232 -290q-143 -102 -323 -103q-246 0 -424.5 175t-178.5 427q0 244 171 427.5t425 183.5q260 0 430 -181q201 -214 160 -544zM406 709h507q-8 57 -72.5 118.5t-181 61.5t-181 -61.5t-72.5 -118.5 zM426 1718l496 -262l-95 -199l-505 222z" />
<glyph unicode="&#xe9;" horiz-adv-x="1323" d="M1247 451h-846q10 -90 85 -145.5t178 -55.5q133 0 206 106h349q-82 -188 -232 -290q-143 -102 -323 -103q-246 0 -424.5 175t-178.5 427q0 244 171 427.5t425 183.5q260 0 430 -181q201 -214 160 -544zM406 709h507q-8 57 -72.5 118.5t-181 61.5t-181 -61.5t-72.5 -118.5 zM403 1473l492 264l109 -242l-504 -223z" />
<glyph unicode="&#xea;" horiz-adv-x="1323" d="M1247 451h-846q10 -90 85 -145.5t178 -55.5q133 0 206 106h349q-82 -188 -232 -290q-143 -102 -323 -103q-246 0 -424.5 175t-178.5 427q0 244 171 427.5t425 183.5q260 0 430 -181q201 -214 160 -544zM406 709h507q-8 57 -72.5 118.5t-181 61.5t-181 -61.5t-72.5 -118.5 zM778 1651l328 -340h-328l-114 116l-115 -116h-332l340 340h221z" />
<glyph unicode="&#xeb;" horiz-adv-x="1323" d="M1247 451h-846q10 -90 85 -145.5t178 -55.5q133 0 206 106h349q-82 -188 -232 -290q-143 -102 -323 -103q-246 0 -424.5 175t-178.5 427q0 244 171 427.5t425 183.5q260 0 430 -181q201 -214 160 -544zM406 709h507q-8 57 -72.5 118.5t-181 61.5t-181 -61.5t-72.5 -118.5 zM586 1628v-309h-326v309h326zM1063 1628v-309h-326v309h326z" />
<glyph unicode="&#xec;" horiz-adv-x="585" d="M123 0v1137h340v-1137h-340zM14 1718l496 -262l-94 -199l-506 222z" />
<glyph unicode="&#xed;" horiz-adv-x="585" d="M123 0v1137h340v-1137h-340zM74 1473l491 264l109 -242l-504 -223z" />
<glyph unicode="&#xee;" horiz-adv-x="585" d="M123 0v1137h340v-1137h-340zM410 1651l327 -340h-327l-115 116l-115 -116h-332l340 340h222z" />
<glyph unicode="&#xef;" horiz-adv-x="585" d="M123 0v1137h340v-1137h-340zM217 1628v-309h-326v309h326zM694 1628v-309h-325v309h325z" />
<glyph unicode="&#xf0;" horiz-adv-x="1363" d="M686 1229l-481 -103v215l239 41q-39 23 -188 72l348 94q82 -29 195 -90l430 90v-215l-205 -33q104 -96 172 -229q98 -186 98 -426q0 -297 -168 -488.5t-444 -191.5q-260 0 -436 167t-176 433q0 274 157.5 433t366.5 159q139 0 240 -90q-12 31 -39 66q-52 61 -109 96z M410 571v-2q0 -115 71.5 -200.5t204.5 -85.5t200.5 91t67.5 197q0 109 -68.5 199t-193.5 90q-141 0 -211.5 -87t-70.5 -202z" />
<glyph unicode="&#xf1;" horiz-adv-x="1294" d="M123 0v1137h317v-121q23 31 39.5 50t54 49t93 45.5t127.5 15.5q109 0 190.5 -35t124.5 -84t68.5 -118t32 -120t6.5 -108v-711h-340v621q0 111 -37 173t-142 62q-115 0 -154.5 -65.5t-39.5 -172.5v-618h-340zM950 1614l113 -225q-121 -76 -232 -76q-25 0 -165 26 q-121 27 -162 27q-78 0 -158 -49l-113 231q127 72 226 72q55 0 166 -25q102 -27 166 -26q100 0 159 45z" />
<glyph unicode="&#xf2;" horiz-adv-x="1363" d="M70 569v2q0 106 38.5 211t111.5 194t192.5 143.5t269 54.5t269.5 -54.5t193 -143.5t111.5 -193.5t38.5 -213t-38.5 -213t-111.5 -193.5t-193 -143.5t-269.5 -54.5t-269 54.5t-192.5 143.5t-111.5 193t-38.5 213zM410 569v-2q0 -121 79.5 -202.5t192.5 -81.5t192.5 81.5 t79.5 204.5t-79.5 205t-192.5 82t-192.5 -82t-79.5 -205zM446 1718l496 -262l-94 -199l-506 222z" />
<glyph unicode="&#xf3;" horiz-adv-x="1363" d="M70 569v2q0 106 38.5 211t111.5 194t192.5 143.5t269 54.5t269.5 -54.5t193 -143.5t111.5 -193.5t38.5 -213t-38.5 -213t-111.5 -193.5t-193 -143.5t-269.5 -54.5t-269 54.5t-192.5 143.5t-111.5 193t-38.5 213zM410 569v-2q0 -121 79.5 -202.5t192.5 -81.5t192.5 81.5 t79.5 204.5t-79.5 205t-192.5 82t-192.5 -82t-79.5 -205zM424 1473l491 264l109 -242l-504 -223z" />
<glyph unicode="&#xf4;" horiz-adv-x="1363" d="M70 569v2q0 106 38.5 211t111.5 194t192.5 143.5t269 54.5t269.5 -54.5t193 -143.5t111.5 -193.5t38.5 -213t-38.5 -213t-111.5 -193.5t-193 -143.5t-269.5 -54.5t-269 54.5t-192.5 143.5t-111.5 193t-38.5 213zM410 569v-2q0 -121 79.5 -202.5t192.5 -81.5t192.5 81.5 t79.5 204.5t-79.5 205t-192.5 82t-192.5 -82t-79.5 -205zM799 1651l327 -340h-327l-115 116l-115 -116h-331l340 340h221z" />
<glyph unicode="&#xf5;" horiz-adv-x="1363" d="M70 569v2q0 106 38.5 211t111.5 194t192.5 143.5t269 54.5t269.5 -54.5t193 -143.5t111.5 -193.5t38.5 -213t-38.5 -213t-111.5 -193.5t-193 -143.5t-269.5 -54.5t-269 54.5t-192.5 143.5t-111.5 193t-38.5 213zM410 569v-2q0 -121 79.5 -202.5t192.5 -81.5t192.5 81.5 t79.5 204.5t-79.5 205t-192.5 82t-192.5 -82t-79.5 -205zM985 1614l113 -225q-121 -76 -232 -76q-25 0 -166 26q-121 27 -161 27q-78 0 -158 -49l-113 231q129 72 226 72q55 0 165 -25q102 -27 166 -26q101 0 160 45z" />
<glyph unicode="&#xf6;" horiz-adv-x="1363" d="M70 569v2q0 106 38.5 211t111.5 194t192.5 143.5t269 54.5t269.5 -54.5t193 -143.5t111.5 -193.5t38.5 -213t-38.5 -213t-111.5 -193.5t-193 -143.5t-269.5 -54.5t-269 54.5t-192.5 143.5t-111.5 193t-38.5 213zM410 569v-2q0 -121 79.5 -202.5t192.5 -81.5t192.5 81.5 t79.5 204.5t-79.5 205t-192.5 82t-192.5 -82t-79.5 -205zM606 1628v-309h-325v309h325zM1083 1628v-309h-325v309h325z" />
<glyph unicode="&#xf7;" horiz-adv-x="1228" d="M774 1153v-328h-321v328h321zM98 354v328h1032v-328h-1032zM774 211v-328h-321v328h321z" />
<glyph unicode="&#xf8;" horiz-adv-x="1363" d="M987 1204h336l-174 -235q145 -174 145 -400q0 -111 -38.5 -216t-112.5 -193t-194 -142.5t-265 -54.5q-135 0 -248 47l-59 -78h-336l172 230q-143 164 -143 403q0 150 64.5 285t208.5 229.5t341 94.5q137 0 248 -48zM436 442l303 408q-37 6 -55 6q-115 0 -194.5 -83 t-79.5 -204q-1 -68 26 -127zM930 688l-299 -401q37 -6 51 -6q123 0 197.5 86t74.5 202q1 58 -24 119z" />
<glyph unicode="&#xf9;" horiz-adv-x="1298" d="M1176 1137v-1137h-318v121q-23 -31 -39 -50.5t-54 -49t-94.5 -45t-127.5 -15.5q-111 0 -192 35t-124 84t-69.5 117.5t-32.5 120t-6 108.5v711h340v-621q0 -111 38 -173t142 -62q115 0 156 65.5t41 171.5v619h340zM342 1718l496 -262l-95 -199l-505 222z" />
<glyph unicode="&#xfa;" horiz-adv-x="1298" d="M1176 1137v-1137h-318v121q-23 -31 -39 -50.5t-54 -49t-94.5 -45t-127.5 -15.5q-111 0 -192 35t-124 84t-69.5 117.5t-32.5 120t-6 108.5v711h340v-621q0 -111 38 -173t142 -62q115 0 156 65.5t41 171.5v619h340zM463 1473l491 264l109 -242l-504 -223z" />
<glyph unicode="&#xfb;" horiz-adv-x="1298" d="M1176 1137v-1137h-318v121q-23 -31 -39 -50.5t-54 -49t-94.5 -45t-127.5 -15.5q-111 0 -192 35t-124 84t-69.5 117.5t-32.5 120t-6 108.5v711h340v-621q0 -111 38 -173t142 -62q115 0 156 65.5t41 171.5v619h340zM766 1651l328 -340h-328l-115 116l-114 -116h-332 l340 340h221z" />
<glyph unicode="&#xfc;" horiz-adv-x="1298" d="M1176 1137v-1137h-318v121q-23 -31 -39 -50.5t-54 -49t-94.5 -45t-127.5 -15.5q-111 0 -192 35t-124 84t-69.5 117.5t-32.5 120t-6 108.5v711h340v-621q0 -111 38 -173t142 -62q115 0 156 65.5t41 171.5v619h340zM573 1628v-309h-325v309h325zM1051 1628v-309h-326v309 h326z" />
<glyph unicode="&#xfd;" horiz-adv-x="1175" d="M244 -379l180 436l-422 1080h363l231 -660l217 660h361l-570 -1516h-360zM401 1473l492 264l108 -242l-503 -223z" />
<glyph unicode="&#xfe;" horiz-adv-x="1423" d="M121 -379v1895h340v-365v-115q41 39 70.5 61.5t103.5 49.5t164 27q117 0 213 -39t159.5 -101.5t106.5 -145.5t61.5 -166t18.5 -165q0 -250 -158 -423t-397 -173q-207 0 -342 141v-143v-338h-340zM1018 567v2q0 111 -77 199t-210 88t-213 -94q-74 -82 -74 -194.5 t76 -198.5q84 -90 211 -90q129 0 208 86.5t79 201.5z" />
<glyph unicode="&#xff;" horiz-adv-x="1175" d="M244 -379l180 436l-422 1080h363l231 -660l217 660h361l-570 -1516h-360zM512 1628v-309h-326v309h326zM989 1628v-309h-325v309h325z" />
<glyph unicode="&#x152;" horiz-adv-x="2222" d="M1649 1176v-236h454v-340h-454v-260h471v-340h-844v51v49q-178 -129 -418 -129q-334 0 -560 231.5t-226 551.5q0 315 219 552.5t577 237.5q104 0 194.5 -25.5t127.5 -47t86 -56.5v51v50h844v-340h-471zM459 754v-2q0 -96 39 -192.5t135 -172.5t231 -76q190 0 300 135.5 t110 317.5q0 186 -112.5 313t-295.5 127q-131 0 -226 -69.5t-138 -168.5t-43 -212z" />
<glyph unicode="&#x153;" horiz-adv-x="2203" d="M2130 463h-852q10 -94 77.5 -153.5t176.5 -59.5q55 0 100 17.5t67.5 36t53.5 50.5h348q-61 -143 -176 -248q-164 -145 -385 -145q-276 0 -426 205q-162 -205 -442 -205q-250 0 -426 174t-176 430q0 250 170 430.5t448 180.5q133 0 251 -56.5t175 -138.5q57 82 175 138.5 t251 56.5q250 0 424 -179q102 -104 148.5 -248.5t17.5 -285.5zM410 567v-2q0 -117 80.5 -201.5t195.5 -84.5q125 0 197.5 91t72.5 199q0 115 -77.5 202t-194.5 87q-106 0 -190 -79t-84 -212zM1288 690h512q-20 92 -91 144.5t-165 52.5t-167 -53.5t-89 -143.5z" />
<glyph unicode="&#x178;" horiz-adv-x="1325" d="M471 0v551l-453 965h420l226 -609l227 609h416l-449 -965v-551h-387zM586 1966v-309h-326v309h326zM1063 1966v-309h-326v309h326z" />
<glyph unicode="&#x2c6;" horiz-adv-x="1136" d="M684 1651l328 -340h-328l-115 116l-114 -116h-332l340 340h221z" />
<glyph unicode="&#x2dc;" horiz-adv-x="1136" d="M870 1614l113 -225q-121 -76 -231 -76q-25 0 -166 26q-121 27 -162 27q-78 0 -158 -49l-112 231q129 72 225 72q55 0 166 -25q102 -27 166 -26q100 0 159 45z" />
<glyph unicode="&#x2000;" horiz-adv-x="1040" />
<glyph unicode="&#x2001;" horiz-adv-x="2082" />
<glyph unicode="&#x2002;" horiz-adv-x="1040" />
<glyph unicode="&#x2003;" horiz-adv-x="2082" />
<glyph unicode="&#x2004;" horiz-adv-x="694" />
<glyph unicode="&#x2005;" horiz-adv-x="520" />
<glyph unicode="&#x2006;" horiz-adv-x="346" />
<glyph unicode="&#x2007;" horiz-adv-x="346" />
<glyph unicode="&#x2008;" horiz-adv-x="260" />
<glyph unicode="&#x2009;" horiz-adv-x="415" />
<glyph unicode="&#x200a;" horiz-adv-x="114" />
<glyph unicode="&#x2010;" horiz-adv-x="575" d="M0 758h575v-334h-575v334z" />
<glyph unicode="&#x2011;" horiz-adv-x="575" d="M0 758h575v-334h-575v334z" />
<glyph unicode="&#x2012;" horiz-adv-x="575" d="M0 758h575v-334h-575v334z" />
<glyph unicode="&#x2013;" horiz-adv-x="1024" d="M72 758h880v-334h-880v334z" />
<glyph unicode="&#x2014;" horiz-adv-x="2048" d="M72 758h1904v-334h-1904v334z" />
<glyph unicode="&#x2018;" horiz-adv-x="643" d="M467 1516l172 -512h-246l-217 512h291z" />
<glyph unicode="&#x2019;" horiz-adv-x="643" d="M4 1004l172 512h291l-217 -512h-246z" />
<glyph unicode="&#x201a;" horiz-adv-x="643" d="M4 -209l172 512h291l-217 -512h-246z" />
<glyph unicode="&#x201c;" horiz-adv-x="1136" d="M543 1516l172 -512h-246l-217 512h291zM922 1516l172 -512h-246l-217 512h291z" />
<glyph unicode="&#x201d;" horiz-adv-x="1136" d="M43 1004l172 512h291l-217 -512h-246zM422 1004l172 512h291l-217 -512h-246z" />
<glyph unicode="&#x201e;" horiz-adv-x="1136" d="M43 -209l172 512h291l-217 -512h-246zM422 -209l172 512h291l-217 -512h-246z" />
<glyph unicode="&#x2022;" horiz-adv-x="1513" d="M760 1090h2q127 0 217 -93.5t90 -224.5t-92 -224t-219 -93q-129 0 -221.5 94t-92.5 223t91.5 223.5t224.5 94.5z" />
<glyph unicode="&#x2026;" horiz-adv-x="2048" d="M166 0v348h354v-348h-354zM848 0v348h354v-348h-354zM1530 0v348h354v-348h-354z" />
<glyph unicode="&#x202f;" horiz-adv-x="415" />
<glyph unicode="&#x2039;" horiz-adv-x="454" d="M16 582l201 372h238l-201 -372l201 -373h-238z" />
<glyph unicode="&#x203a;" horiz-adv-x="454" d="M238 954l200 -372l-200 -373h-238l201 373l-201 372h238z" />
<glyph unicode="&#x205f;" horiz-adv-x="520" />
<glyph unicode="&#x20ac;" d="M944 715l-37 -197h-332q39 -207 173 -207q102 0 139 123h336q-35 -268 -201 -383q-115 -80 -287 -80q-233 0 -360 146.5t-164 400.5h-191l37 197h138v43v47h-175l37 196h158q43 244 172 393.5t356 149.5q215 0 334 -134t144 -320h-336q-16 49 -54 81.5t-88 32.5 q-131 0 -168 -203h422l-36 -196h-404v-47v-43h387z" />
<glyph unicode="&#x2122;" horiz-adv-x="2027" d="M791 606v910h325l182 -568l177 568h325v-910h-239v617l-179 -617h-172l-180 613v-613h-239zM229 606v692h-186v218h629v-218h-185v-692h-258z" />
<glyph unicode="&#xe000;" horiz-adv-x="1135" d="M0 1135h1135v-1135h-1135v1135z" />
<glyph unicode="&#xfb01;" horiz-adv-x="1230" d="M768 879h-293v-879h-340v879h-127v258h127v49q0 96 29 163.5t70.5 104.5t111.5 58.5t129.5 26.5t142.5 5v-256q-45 0 -68.5 -3t-49 -28.5t-25.5 -76.5v-43h633v-1137h-340v879zM1108 1257h-340v259h340v-259z" />
<glyph unicode="&#xfb02;" horiz-adv-x="1230" d="M768 879h-293v-879h-340v879h-127v258h127v49q0 96 29 163.5t70.5 104.5t111.5 58.5t129.5 26.5t142.5 5v-256q-45 0 -68.5 -3t-49 -28.5t-25.5 -76.5v-43h293v376h340v-1513h-340v879z" />
<glyph unicode="&#xfb03;" horiz-adv-x="1871" d="M1409 1257v259h340v-259h-340zM1409 0v1137h340v-1137h-340zM778 0v879h-127v258h127v49q0 96 29 163.5t70.5 104.5t111.5 58.5t129.5 26.5t142.5 5v-256q-45 0 -68.5 -3t-49 -28.5t-25.5 -76.5v-43h143v-258h-143v-879h-340zM135 0v879h-127v258h127v49q0 96 29 163.5 t70.5 104.5t111.5 58.5t129.5 26.5t142.5 5v-256q-45 0 -68.5 -3t-49 -28.5t-25.5 -76.5v-43h143v-258h-143v-879h-340z" />
<glyph unicode="&#xfb04;" horiz-adv-x="1871" d="M1409 0v1516h340v-1516h-340zM778 0v879h-127v258h127v49q0 96 29 163.5t70.5 104.5t111.5 58.5t129.5 26.5t142.5 5v-256q-45 0 -68.5 -3t-49 -28.5t-25.5 -76.5v-43h143v-258h-143v-879h-340zM135 0v879h-127v258h127v49q0 96 29 163.5t70.5 104.5t111.5 58.5 t129.5 26.5t142.5 5v-256q-45 0 -68.5 -3t-49 -28.5t-25.5 -76.5v-43h143v-258h-143v-879h-340z" />
</font>
</defs>
</svg>
